<svg width="25" height="25" viewBox="0 0 25 25" fill="none" xmlns="http://www.w3.org/2000/svg">
<path d="M18.7957 8.25281C18.7957 6.66151 18.1635 5.13539 17.0383 4.01017C15.9131 2.88495 14.387 2.25281 12.7957 2.25281C11.2044 2.25281 9.67823 2.88495 8.55301 4.01017C7.4278 5.13539 6.79565 6.66151 6.79565 8.25281C6.79565 15.2528 3.79565 17.2528 3.79565 17.2528H21.7957C21.7957 17.2528 18.7957 15.2528 18.7957 8.25281Z" fill="#E3E3E3"/>
<path d="M14.5257 21.2528C14.3499 21.5559 14.0975 21.8075 13.7939 21.9823C13.4903 22.1572 13.1461 22.2493 12.7957 22.2493C12.4453 22.2493 12.1011 22.1572 11.7974 21.9823C11.4938 21.8075 11.2415 21.5559 11.0657 21.2528" stroke="#E3E3E3" stroke-width="2" stroke-linecap="round" stroke-linejoin="round"/>
</svg>
