<svg width="36" height="38" viewBox="0 0 36 38" fill="none" xmlns="http://www.w3.org/2000/svg">
<mask id="mask0_31_3" style="mask-type:alpha" maskUnits="userSpaceOnUse" x="0" y="0" width="36" height="36">
<circle cx="18.153" cy="18.2527" r="17.5292" fill="#FFC145"/>
</mask>
<g mask="url(#mask0_31_3)">
<path d="M28.9857 37.8703V34.2895C28.9857 32.3901 28.415 30.5685 27.3993 29.2254C26.3835 27.8823 25.0058 27.1278 23.5693 27.1278H12.7365C11.3 27.1278 9.92227 27.8823 8.9065 29.2254C7.89072 30.5685 7.32007 32.3901 7.32007 34.2895V37.8703" fill="#197BBD"/>
<path d="M18.1515 21.7106C21.1429 21.7106 23.5679 19.2856 23.5679 16.2942C23.5679 13.3028 21.1429 10.8778 18.1515 10.8778C15.1601 10.8778 12.7351 13.3028 12.7351 16.2942C12.7351 19.2856 15.1601 21.7106 18.1515 21.7106Z" fill="white"/>
</g>
</svg>
