<svg width="31" height="31" viewBox="0 0 31 31" fill="none" xmlns="http://www.w3.org/2000/svg">
<rect width="30" height="30" transform="translate(0.690369 0.250732)"/>
<path d="M15.6906 17.566C16.9691 17.566 18.0055 16.5296 18.0055 15.2511C18.0055 13.9726 16.9691 12.9362 15.6906 12.9362C14.4121 12.9362 13.3757 13.9726 13.3757 15.2511C13.3757 16.5296 14.4121 17.566 15.6906 17.566Z" stroke="#C7C7C7" stroke-width="2" stroke-linecap="round" stroke-linejoin="round"/>
<path d="M21.4006 17.5658C21.2979 17.7986 21.2672 18.0567 21.3126 18.3071C21.358 18.5574 21.4773 18.7884 21.6552 18.9702L21.7015 19.0165C21.845 19.1599 21.9588 19.3301 22.0365 19.5174C22.1142 19.7048 22.1541 19.9056 22.1541 20.1084C22.1541 20.3112 22.1142 20.512 22.0365 20.6994C21.9588 20.8867 21.845 21.0569 21.7015 21.2003C21.5582 21.3438 21.388 21.4576 21.2006 21.5353C21.0133 21.6129 20.8125 21.6529 20.6096 21.6529C20.4068 21.6529 20.206 21.6129 20.0187 21.5353C19.8313 21.4576 19.6611 21.3438 19.5178 21.2003L19.4715 21.154C19.2896 20.9761 19.0586 20.8567 18.8083 20.8114C18.558 20.766 18.2998 20.7966 18.0671 20.8993C17.8388 20.9971 17.6442 21.1596 17.5071 21.3666C17.37 21.5736 17.2964 21.8162 17.2954 22.0645V22.1957C17.2954 22.605 17.1328 22.9975 16.8434 23.287C16.554 23.5764 16.1615 23.739 15.7521 23.739C15.3428 23.739 14.9503 23.5764 14.6609 23.287C14.3715 22.9975 14.2089 22.605 14.2089 22.1957V22.1262C14.2029 21.8708 14.1202 21.6231 13.9716 21.4153C13.823 21.2075 13.6153 21.0493 13.3755 20.9611C13.1427 20.8583 12.8846 20.8277 12.6343 20.8731C12.3839 20.9185 12.153 21.0378 11.9711 21.2157L11.9248 21.262C11.7815 21.4055 11.6113 21.5193 11.4239 21.597C11.2366 21.6747 11.0357 21.7146 10.8329 21.7146C10.6301 21.7146 10.4293 21.6747 10.2419 21.597C10.0546 21.5193 9.88437 21.4055 9.74104 21.262C9.59755 21.1187 9.48372 20.9485 9.40605 20.7611C9.32839 20.5738 9.28841 20.3729 9.28841 20.1701C9.28841 19.9673 9.32839 19.7665 9.40605 19.5791C9.48372 19.3918 9.59755 19.2216 9.74104 19.0783L9.78734 19.032C9.96523 18.8501 10.0846 18.6191 10.13 18.3688C10.1753 18.1185 10.1447 17.8603 10.042 17.6276C9.94417 17.3993 9.78175 17.2047 9.57472 17.0676C9.3677 16.9305 9.1251 16.8569 8.8768 16.8559H8.74562C8.33631 16.8559 7.94377 16.6933 7.65435 16.4039C7.36493 16.1145 7.20233 15.7219 7.20233 15.3126C7.20233 14.9033 7.36493 14.5108 7.65435 14.2214C7.94377 13.9319 8.33631 13.7693 8.74562 13.7693H8.81507C9.07048 13.7634 9.31818 13.6807 9.52598 13.5321C9.73378 13.3834 9.89206 13.1757 9.98025 12.936C10.083 12.7032 10.1136 12.4451 10.0682 12.1947C10.0228 11.9444 9.9035 11.7134 9.72561 11.5316L9.67931 11.4853C9.53582 11.3419 9.42199 11.1717 9.34432 10.9844C9.26666 10.797 9.22668 10.5962 9.22668 10.3934C9.22668 10.1906 9.26666 9.98977 9.34432 9.80241C9.42199 9.61506 9.53582 9.44486 9.67931 9.30153C9.82264 9.15804 9.99285 9.0442 10.1802 8.96654C10.3675 8.88888 10.5684 8.8489 10.7712 8.8489C10.974 8.8489 11.1748 8.88888 11.3622 8.96654C11.5495 9.0442 11.7197 9.15804 11.8631 9.30153L11.9094 9.34782C12.0912 9.52572 12.3222 9.64505 12.5725 9.69044C12.8228 9.73582 13.081 9.70518 13.3138 9.60247H13.3755C13.6037 9.50465 13.7984 9.34223 13.9355 9.13521C14.0726 8.92819 14.1461 8.68559 14.1471 8.43728V8.30611C14.1471 7.8968 14.3097 7.50426 14.5991 7.21484C14.8886 6.92541 15.2811 6.76282 15.6904 6.76282C16.0997 6.76282 16.4923 6.92541 16.7817 7.21484C17.0711 7.50426 17.2337 7.8968 17.2337 8.30611V8.37555C17.2347 8.62386 17.3083 8.86645 17.4454 9.07348C17.5825 9.2805 17.7771 9.44292 18.0053 9.54074C18.2381 9.64345 18.4963 9.67409 18.7466 9.62871C18.9969 9.58332 19.2279 9.46399 19.4097 9.28609L19.456 9.23979C19.5994 9.0963 19.7696 8.98247 19.9569 8.90481C20.1443 8.82714 20.3451 8.78717 20.5479 8.78717C20.7507 8.78717 20.9515 8.82714 21.1389 8.90481C21.3263 8.98247 21.4965 9.0963 21.6398 9.23979C21.7833 9.38312 21.8971 9.55333 21.9748 9.74068C22.0524 9.92804 22.0924 10.1289 22.0924 10.3317C22.0924 10.5345 22.0524 10.7353 21.9748 10.9227C21.8971 11.11 21.7833 11.2802 21.6398 11.4235L21.5935 11.4698C21.4156 11.6517 21.2963 11.8827 21.2509 12.133C21.2055 12.3833 21.2361 12.6415 21.3388 12.8742V12.936C21.4367 13.1642 21.5991 13.3588 21.8061 13.4959C22.0131 13.633 22.2557 13.7066 22.504 13.7076H22.6352C23.0445 13.7076 23.4371 13.8702 23.7265 14.1596C24.0159 14.4491 24.1785 14.8416 24.1785 15.2509C24.1785 15.6602 24.0159 16.0527 23.7265 16.3422C23.4371 16.6316 23.0445 16.7942 22.6352 16.7942H22.5658C22.3175 16.7952 22.0749 16.8688 21.8678 17.0059C21.6608 17.143 21.4984 17.3376 21.4006 17.5658V17.5658Z" stroke="#C7C7C7" stroke-width="2" stroke-linecap="round" stroke-linejoin="round"/>
</svg>
